<?xml version="1.0" encoding="utf-8"?>
<!-- Generator: Adobe Illustrator 23.0.5, SVG Export Plug-In . SVG Version: 6.00 Build 0)  -->
<svg version="1.1" id="Слой_1" xmlns="http://www.w3.org/2000/svg" xmlns:xlink="http://www.w3.org/1999/xlink" x="0px" y="0px"
	 viewBox="0 0 237.8 235.1" style="enable-background:new 0 0 237.8 235.1;" xml:space="preserve">
<title>logl2</title>
<g>
	<g id="Слой_5">
		<path d="M30.3,90.1c0.6,12,15.2,15.5,24.8,12.2c11.2-3.8,17.4-15.6,15.6-27.1c-2-12.6-17.2-22.9-13.8-36.4
			c2.1-8.3,12.1-8.6,18.8-6.4c6.6,2.2,12.2,6.5,16,12.3c9.6,14.3,5.5,32.6-3.9,45.8c-1.7,2.4,2.2,4.7,4,2.3
			c7.8-10.7,11.9-24.3,9.3-37.5c-2.4-11.9-10.5-21.8-21.7-26.4c-9.8-3.9-24.4-3-27.1,9.3c-3,14.1,9.7,23.1,13.3,35.4
			c2.3,8-0.4,17.5-7.5,22.2c-6.4,4.3-22.6,5.4-23.2-5.7C34.8,87.1,30.2,87.1,30.3,90.1z"/>
		<path d="M57.6,79.7c1.2-3.9,7.2-5.6,10.5-6.4c3.5-0.9,7.1-1.2,10.8-0.9c3,0.2,2.9-4.4,0-4.6c-8.1-0.5-23,1.4-25.8,10.8
			C52.3,81.3,56.7,82.5,57.6,79.7z"/>
		<path d="M109.6,72.1c6.2-19.8,5.8-41.2-1.2-60.7c-1-2.8-5.4-1.6-4.4,1.2c6.8,18.8,7.2,39.3,1.2,58.3
			C104.2,73.7,108.7,74.9,109.6,72.1L109.6,72.1z"/>
		<path d="M124.9,47.3c-0.4-6-0.4-12.1-0.1-18.1c0.2-3-4.4-3-4.6,0c-0.4,6-0.3,12.1,0.1,18.1C120.5,50.3,125.1,50.3,124.9,47.3z"/>
		<path d="M121.7,21.4c3,0,3-4.6,0-4.6S118.8,21.4,121.7,21.4z"/>
		<path d="M175.2,27.8c-1.4-5.6-6.3-9.7-12.1-10.2c-6.7-0.7-12.9,2.9-17.8,7.2c-9.9,8.6-15.4,21.6-16,34.6
			c-0.7,13.3,4.1,26.9,17.9,31.1c13.3,4,29.5,0.8,35.2-13c1.1-2.8-3.3-3.9-4.4-1.2c-4.8,11.5-19.8,13.2-30.3,9.6
			c-11.3-3.9-14.3-15.5-13.8-26.4c0.4-9.6,3.9-18.8,9.9-26.4c3.3-4.1,7.7-8.1,12.7-9.9c5.6-2,12.7-0.5,14.3,6
			C171.4,31.9,175.8,30.7,175.2,27.8z"/>
		<path d="M146.2,60c1.7,3.9,8.6,4.5,12.3,4.5c4.4,0,9-1.7,11.4-5.5c5.4-8.4-4.1-16.3-12.4-14.6c-9.1,1.8-15,12.1-13.8,21
			c1.4,10.4,13.9,12.6,22,9.1c2.7-1.2,0.4-5.1-2.3-4c-5.5,2.4-14.7,0.9-15.2-6.4c-0.2-4.9,1.9-9.7,5.6-12.9c2-1.7,4.5-2.6,7.1-2.4
			c3.7,0.3,7.1,3.7,5.2,7.4c-1.5,2.8-4.6,3.8-7.6,3.8c-1.7,0-7.5-0.3-8.3-2.2C149.1,54.8,145.1,57.2,146.2,60L146.2,60z"/>
		<path d="M116.5,129.9c-0.7-6-0.9-12.1-0.8-18.1c0-3-4.6-3-4.6,0c-0.1,6,0.2,12.1,0.8,18.1C112.2,132.8,116.8,132.9,116.5,129.9z"
			/>
		<path d="M113,102.7c3,0,3-4.6,0-4.6C110,98.1,110.1,102.7,113,102.7z"/>
		<path d="M34.6,119c2.9-8.1,13.5-6.1,16.2,1c2.9,7.6-3.2,14.7-9.9,17.2c-10.1,3.9-23.3,2.2-30.6,11.6c-5.6,7.2-4.1,17.4,4.9,20.7
			c10.4,3.8,19.3-3.8,26.2-10.7l-3.6-2.8c-3.4,4.5-8.5,7.4-12.3,11.6c-2.6,2.9-6,7.8-4.4,12c1.7,4.3,7.7,6.3,11.9,6.8
			c5.1,0.6,10.3-0.4,14.9-2.8c10.8-5.6,15.6-16.9,20.5-27.2c2.8-6,6.9-11.9,14.3-11.4c8.3,0.5,12.7,8.8,10.1,16.3
			c-0.9,2.8,3.5,4,4.4,1.2c3.3-9.6-2.4-20.2-12.7-21.9c-11.8-1.9-17.7,7.9-21.8,17.2c-5,11.4-13.4,24.9-27.8,24.2
			c-3.1-0.1-9.5-1.3-9.4-5.7c0.1-2.8,3.5-5.8,5.3-7.5c3.8-3.5,7.8-6.3,10.9-10.4c1.6-2.1-1.8-4.6-3.6-2.8
			c-4.7,4.7-10.4,10.6-17.6,10.3c-7.6-0.3-11.5-7.3-7.1-13.7c7.4-10.8,25.2-6.4,35.1-14c8.1-6.2,10.6-18.6,2.5-25.9
			c-5.3-4.8-13.4-4.3-18.2,0.9c-1.2,1.3-2,2.8-2.6,4.4C29.2,120.6,33.6,121.8,34.6,119L34.6,119z"/>
		<path d="M56.2,186.2c-6.2-0.1-10.7,7.7-10.4,13.3c0.3,6,6.2,10.8,12.1,9.4c6.6-1.5,9.8-8.7,9-15c-0.9-7.4-7.1-8.8-13.4-7.2
			c-2.9,0.7-1.7,5.1,1.2,4.4c3.8-0.9,7.4-0.8,7.7,3.9c0.2,3.3-1,7.4-4.2,8.9c-2.8,1.3-6,0.1-7.4-2.6c-0.4-0.8-0.5-1.6-0.5-2.4
			c0-2.8,2.5-8.2,5.8-8.2C59.1,190.9,59.2,186.3,56.2,186.2L56.2,186.2z"/>
		<path d="M74.5,192.7l-8.7,19c-1.2,2.7,2.8,5,4,2.3l8.7-19C79.7,192.4,75.7,190,74.5,192.7z"/>
		<path d="M75.3,201.3c4.3-1.7,5,4.1,4.4,6.9c-0.6,2.7-2.2,5.2-4.5,6.8c-2.3,1.8,0.9,5.1,3.3,3.2c4.3-3.3,6.6-8.7,5.9-14.2
			c-0.7-4.9-5.1-9.2-10.3-7.2C71.3,198,72.5,202.4,75.3,201.3L75.3,201.3z"/>
		<path d="M109.4,160.8L95,221.4c-0.7,2.9,3.7,4.1,4.4,1.2l14.5-60.5C114.6,159.2,110.1,157.9,109.4,160.8L109.4,160.8z"/>
		<path d="M102.3,204.8c-5.7-5.9-14.9-0.9-16.9,5.9c-1,3.5-0.4,7.8,2.8,9.9c3,2,6.7,1.7,10.1,1.2c2.9-0.4,1.7-4.8-1.2-4.4
			c-4,0.6-8.8,0-7.2-5.5c1-3.5,6-7.2,9.2-3.9C101.2,210.2,104.4,206.9,102.3,204.8L102.3,204.8z"/>
		<path d="M109.1,215.2c5.9,6.5,18.7-2,17.4-9.9c-0.8-4.5-5.3-6.5-9.6-5.7c-5,0.9-8.7,4.9-10.1,9.6c-1.3,4.4-1.3,10.6,2.3,13.9
			c3.4,3.2,9,3.3,13.3,2.7c4.6-0.6,9.5-2.4,12.1-6.5c1.2-1.9,2-4.2,2-6.5c0.1-1.4,0-2.9-0.3-4.3c-0.1-0.6-0.2-1.3-0.3-1.9
			c-0.2-1-1.5-3.3,0.1-2.8c1.8,0.5,2.6,4.5,4.5,5.7c1.9,1.1,4.1,1.4,6.2,0.8c4.9-1.5,8.1-6.3,7.5-11.4c-0.3-2.9-4.9-2.9-4.6,0
			c0.3,2.3-0.4,5-2.5,6.2c-2.8,1.6-4.6-0.1-5.9-2.3c-1.2-2.1-2.7-4.1-5.2-4.5c-8-1.1-4.1,9.1-4.1,12.9c0.1,5.2-2.9,8.3-7.8,9.6
			c-3.8,1-9.7,1.5-12.3-1.8c-3.2-4.2-0.7-12.1,4-14.3c2.3-1,2.7-0.9,4.4,1.1c1.9,2.2,1.3,2.8-0.7,4.7c-1.6,1.5-5.4,3.7-7.4,1.5
			C110.3,209.8,107.1,213,109.1,215.2L109.1,215.2z"/>
		<path d="M139.6,155.8c7.6,19.5,15.5,39,23.7,58.3c1.2,2.7,5.1,0.4,4-2.3c-8.1-18.9-15.8-38-23.2-57.2
			C142.9,151.9,138.5,153.1,139.6,155.8z"/>
		<path d="M174.9,184c-6.9,0.1-11,5.9-10.1,12.5c0.4,3.1,1.3,6.4,4,8.3c2.7,1.8,6.3,1.8,9.2,1c5.7-1.6,11.4-7.7,10-14.1
			c-1.6-7.1-10.8-8.9-16.6-6.7c-2.8,1-1.5,5.5,1.2,4.4c3.1-1.2,7.9-1.4,10.1,1.8c2.6,3.6-1.4,8.1-4.6,9.6c-3.9,1.8-7.6,0.9-8.6-3.5
			c-1-4.4,0.3-8.7,5.3-8.7C177.9,188.6,177.9,184,174.9,184L174.9,184z"/>
		<path d="M173.4,180.8c4.5,9.6,15.8,13.9,25.5,9.7c2.7-1.1,1.5-5.6-1.2-4.4c-8.2,3.4-16.5,0.4-20.3-7.6
			C176.1,175.8,172.1,178.1,173.4,180.8L173.4,180.8z"/>
		<path d="M186.2,167.7l16.1,13.4c2.3,1.8,5.5-1.4,3.2-3.2l-16.1-13.4C187.2,162.6,183.9,165.8,186.2,167.7z"/>
		<path d="M194.7,169.2c-0.6-4.7,5.4-3.7,8-2.3c2.4,1.3,4.2,3.5,5.2,6c1.2,2.8,5.1,0.4,4-2.3c-2.1-5-6.5-8.5-11.8-9.4
			c-5-0.7-10.6,2.3-9.9,8C190.4,172.1,195,172.1,194.7,169.2L194.7,169.2z"/>
		<path d="M172.5,121l49.9,34.1c2.5,1.7,4.8-2.3,2.3-4L174.8,117C172.3,115.3,170,119.3,172.5,121L172.5,121z"/>
		<path d="M209.8,141.7c-7.6,3-7,13-1.4,17.8c2.8,2.3,6.9,3.5,10.2,1.6c3-1.8,4.3-5.5,5.1-8.7c0.7-2.9-3.7-4.1-4.4-1.2
			c-0.9,3.7-2.8,8.4-7.4,5.3c-2.8-1.9-5.3-8.5-0.8-10.2C213.9,145.1,212.7,140.7,209.8,141.7L209.8,141.7z"/>
		<path d="M121.5,109l-0.4,20.8c-0.1,3,4.5,3,4.6,0l0.4-20.8C126.2,106,121.6,106,121.5,109z"/>
		<path d="M125.9,116.1c2.8-2.9,5.5,1.9,6.1,4.2c0.7,2.8,0.4,5.8-1,8.3c-1.4,2.6,2.6,4.9,4,2.3c2.7-5,2.9-11.3-0.4-16.2
			c-2.7-4-8.3-5.7-11.9-1.9C120.6,115,123.8,118.2,125.9,116.1L125.9,116.1z"/>
	</g>
</g>
</svg>
