<svg xmlns="http://www.w3.org/2000/svg" viewBox="0 0 119.16 140.92"><title>14</title><g id="Слой_2" data-name="Слой 2"><g id="Слой_12" data-name="Слой 12"><path d="M216.13,62.63h-10V24.88a34.54,34.54,0,0,1-12.94,7.59V23.38a28.64,28.64,0,0,0,8.52-4.86A18.49,18.49,0,0,0,208,10.16h8.13Z" transform="translate(-168.49 -10.16)"/><path d="M248,10.16q7.59,0,11.87,5.42Q265,22,265,36.86t-5.13,21.31q-4.24,5.36-11.84,5.35a15,15,0,0,1-12.3-5.87q-4.66-5.85-4.66-20.9,0-14.76,5.13-21.25Q240.45,10.16,248,10.16Zm0,8.3a5,5,0,0,0-3.24,1.16,7.77,7.77,0,0,0-2.21,4.15c-.69,2.6-1,7-1,13.09s.31,10.34.93,12.63,1.4,3.82,2.34,4.58a5.13,5.13,0,0,0,6.47,0,7.8,7.8,0,0,0,2.21-4.15q1-3.84,1-13t-.93-12.64c-.62-2.29-1.39-3.83-2.33-4.6A5,5,0,0,0,248,18.46Z" transform="translate(-168.49 -10.16)"/><path d="M175.55,112.37h33.54v37.86h-10V120.5H185.46v17c0,4.33-.5,7.36-1.5,9.11a7.82,7.82,0,0,1-3.31,3.44,15.41,15.41,0,0,1-5.85.82,42.09,42.09,0,0,1-6.31-.64v-7.38c.22,0,.77,0,1.68.07s1.85.11,2.42.11c1.36,0,2.19-.45,2.5-1.34s.46-3.37.46-7.43Z" transform="translate(-168.49 -10.16)"/><path d="M240.17,138.18l10,1.67a16.38,16.38,0,0,1-6.07,8.36,17.82,17.82,0,0,1-10.39,2.87q-9.88,0-14.62-6.45-3.73-5.16-3.74-13,0-9.41,4.92-14.73a16.17,16.17,0,0,1,12.44-5.33q8.44,0,13.33,5.57t4.67,17.1h-25.1a10.14,10.14,0,0,0,2.43,6.93,7.58,7.58,0,0,0,5.77,2.48,6.12,6.12,0,0,0,4-1.29A7.84,7.84,0,0,0,240.17,138.18Zm.57-10.12q-.11-4.35-2.24-6.62a7.23,7.23,0,0,0-10.62.13,9.23,9.23,0,0,0-2.11,6.49Z" transform="translate(-168.49 -10.16)"/><path d="M253.4,112.37h34.25v8.09H275.53v29.77h-10V120.46H253.4Z" transform="translate(-168.49 -10.16)"/></g></g></svg>