<svg xmlns="http://www.w3.org/2000/svg" viewBox="0 0 106.41 63.11"><defs><style>.cls-1{fill:#fff;}</style></defs><title>16</title><g id="Слой_2" data-name="Слой 2"><g id="Слой_10" data-name="Слой 10"><g id="Слой_4" data-name="Слой 4"><path class="cls-1" d="M104,4.29c.73-2.47,0-4.28-3.52-4.28H88.85A5,5,0,0,0,83.79,3.3S77.86,17.72,69.48,27.06c-2.7,2.7-4,3.57-5.43,3.57-.73,0-1.86-.87-1.86-3.33V4.3c0-3-.83-4.28-3.28-4.28H40.62a2.81,2.81,0,0,0-3,2.59v.07c0,2.8,4.18,3.45,4.62,11.34v17.1c0,3.75-.67,4.44-2.15,4.44-4,0-13.56-14.47-19.25-31C19.74,1.31,18.61,0,15.63,0H4C.67,0,0,1.57,0,3.3,0,6.38,4,21.66,18.39,41.85,28,55.63,41.57,63.11,53.9,63.11c7.4,0,8.31-1.66,8.31-4.52,0-13.17-.67-14.41,3.05-14.41,1.72,0,4.68.86,11.59,7.51,7.91,7.89,9.21,11.42,13.64,11.42h11.63c3.32,0,5-1.66,4-4.93-2.21-6.88-17.17-21-17.84-22C86.59,34,87.09,33,88.31,31c0,0,14.23-20,15.69-26.74Z"/></g></g></g></svg>