<svg xmlns="http://www.w3.org/2000/svg" viewBox="0 0 98.22 98.22"><defs><style>.cls-1{fill:#fff;}</style></defs><title>17</title><g id="Слой_2" data-name="Слой 2"><g id="Слой_10" data-name="Слой 10"><g id="Слой_4" data-name="Слой 4"><path class="cls-1" d="M49.09,98.22A49.11,49.11,0,1,1,98.22,49.13c0,.45,0,.89,0,1.34A49.12,49.12,0,0,1,49.09,98.22ZM92.23,49.09A43.09,43.09,0,1,0,49.44,92.48h.48A43.3,43.3,0,0,0,92.23,49.09Z"/><path class="cls-1" d="M17.61,43.61c2,.57,4,1.14,6,1.69a3.07,3.07,0,0,1,.17-.31,14.19,14.19,0,0,1-6-12,12.09,12.09,0,0,1,1.94-6.74c7.68,8.93,17.31,14,29,14.72A55.31,55.31,0,0,1,49,34.8c1.44-8.29,11-13.51,18.79-10.44a16.61,16.61,0,0,1,5,3.07,1.57,1.57,0,0,0,1.26.36c2.38-.81,4.73-1.7,7.09-2.58a10.26,10.26,0,0,0,1.14-.59,16.12,16.12,0,0,1-5.67,7.76c.81-.14,1.62-.26,2.4-.44s1.72-.45,2.56-.72,1.58-.56,2.59-.93A27.24,27.24,0,0,1,78,36.85a2.05,2.05,0,0,0-.93,1.87A40.77,40.77,0,0,1,66.25,67.25,37.31,37.31,0,0,1,45.11,79.09a42,42,0,0,1-18.83-.53,40.1,40.1,0,0,1-10.8-4.65,4,4,0,0,1-.38-.34,29,29,0,0,0,20.73-5.89C29.31,67,25,63.82,22.57,57.73h6l.06-.31a14.48,14.48,0,0,1-9.24-7.11A13.67,13.67,0,0,1,17.61,43.61Z"/></g></g></g></svg>