<svg xmlns="http://www.w3.org/2000/svg" viewBox="0 0 90 88.13"><defs><style>.cls-1{fill:#fff;}</style></defs><title>18</title><g id="Слой_2" data-name="Слой 2"><g id="Слой_10" data-name="Слой 10"><g id="Слой_4" data-name="Слой 4"><path class="cls-1" d="M75.75,9.38h-9a4.87,4.87,0,0,0-4.87,4.87v9a4.88,4.88,0,0,0,4.87,4.88h9a4.9,4.9,0,0,0,4.88-4.88v-9A4.88,4.88,0,0,0,75.75,9.38Zm1.13,13.87a1.15,1.15,0,0,1-1.13,1.13h-9a1.13,1.13,0,0,1-1.12-1.13v-9a1.12,1.12,0,0,1,1.12-1.12h9a1.13,1.13,0,0,1,1.13,1.12Z"/><path class="cls-1" d="M70.87,0H19.13A19.19,19.19,0,0,0,0,19.18V68.94A19.18,19.18,0,0,0,19.13,88.13H70.87A19.18,19.18,0,0,0,90,68.94V19.18A19.19,19.19,0,0,0,70.87,0ZM86.25,68.94A15.42,15.42,0,0,1,70.87,84.38H19.13A15.42,15.42,0,0,1,3.75,68.94V35.63H26.66a26.25,26.25,0,1,0,37.12.44l-.44-.44H86.25ZM67.5,54.38A22.5,22.5,0,1,1,45,31.88,22.5,22.5,0,0,1,67.5,54.38Zm-9-22.5a26,26,0,0,0-26.9,0H3.75V19.18A15.42,15.42,0,0,1,19.13,3.75H70.87A15.42,15.42,0,0,1,86.25,19.18v12.7Z"/><path class="cls-1" d="M28.13,54.38A16.88,16.88,0,1,0,45,37.5h0A16.89,16.89,0,0,0,28.13,54.38Zm30,0A13.13,13.13,0,1,1,45,41.25h0A13.14,13.14,0,0,1,58.13,54.38Z"/></g></g></g></svg>