<svg xmlns="http://www.w3.org/2000/svg" viewBox="0 0 1925 315.3"><defs><style>.cls-1{fill:#fff;}</style></defs><title>2</title><g id="Слой_2" data-name="Слой 2"><g id="Слой_8" data-name="Слой 8"><path class="cls-1" d="M1925,279H1690.54c-4.21,0-8.37-.11-12.43-.33-7.45-9.67-.47-20.67-3.46-31.67-9,33-46.88,50-76.9,33.81a41.52,41.52,0,0,0-9-1.81h-21.93c-2.47,0-4.76,0-6.78-.13-28.06-.87-57,1.13-84.79.31-3.1-.08-6.07-.18-8.74-.18H301.48c-2.06,0-3.56-1.07-2.9-6.56C325.16,225,320.17,169,283.26,128c-31.91-34-66.82-64-114.7-70-4-1-6-5-10-6,17.95,14,39.89,19,60.84,27-10-7-21.94-11-32.91-16,24.93,6,47.87,19,66.82,36-7-5-13-12-20.94-17,43.88,33,95.75,86,71.81,143-17,41-71.81,76-113.7,43-5,10-20.95,0-19.95,5,2,27,38.9,40,66.82,35a5,5,0,0,0-1-3c37.9-16,71.81-54,74.8-94,5-76-70.81-140-142.63-153,10,8,22.94,9,33.91,14-11-4-23.93-6-33.91-14,77.8,13,165.57,91,140.64,174-9,32-26.93,65-59.85,78-41.89,15-82.78-8-117.9-30.36a46.74,46.74,0,0,0-9.14-.64H0V266.5c0-3.75.07-8,.14-12.46C10,244,13,231,20,219c3-5,15,8,20,6,22.94-8,4-51-6-70-2-4-10-5-8-12,2-6,7-16,8-14,19,30,30.92,54,63.84,71,12,5,14,29,19.81,46.44q2.68,5.16,5.79,10.09c26.92,42.6,76.74,70.25,125,51.47,43.89-17,73.81-69,63.84-117-15-72-77.8-121-146.62-135,9,8,21.94,11,32.91,15-12-5-25.93-7-34.9-17,72.81,19,155.59,78,147.61,162-4,34-31.92,59-53.86,83,24.94-12,36.91-37,50.87-59-13,20-24.94,43-45.88,56,24.93-32,61.84-67,47.87-112-18.95-63-73.8-115-139.63-125,7,6,15,7,22.94,10-10-3-19.95-7-28.93-14,48.88,11,88.77,38,121.69,77,48.87,55,30.92,137-29.93,173-36.9,23-80.79,4-111.71-23-23.93-22-35.9-60-13-87,21.94-23,49.87-8,72.74,4h12.72c2.14,0,4.78.54,8.84,2.59C231.4,214,233.39,227,246.36,234c17,9,38.9,1,43.89-16,15-53-15-105-58.85-134,7,5,12,11,16.95,18-12-9-22.94-20-36.9-25A296.13,296.13,0,0,1,154.6,50c5,2,10,6,15,7,71.81,15,123.68,69,150.74,131.72A43.25,43.25,0,0,0,325.51,199h10.3a22.5,22.5,0,0,1,5.5,1.32C358.07,225,372,253,403,262c44.89,12,101.74,25,134.65-16,33.92-42,12-96-9-139-10-19-27.93-30-46.88-38-7-2-16-3-21.94,2-2,3-4,7,0,10-2-9,8-13,15.95-12,17,4,29.93,13,40.9,25,24.93,29,19,68,25.93,103,17-33-4-71-22.94-100a63.91,63.91,0,0,0-49.87-29c23.94,2,45.88,18,55.85,39,11,24,27.93,54,18,80-6-24-6-50-16-74-9-22-27.93-39-52.86-44-8-1-17,3-17,12-4-8,4-13,10-13,26.94-1,50.87,20,62.84,43,19,39,36.91,86,12,128-23.94,40-76.8,36-113.7,19,32.91,20,81.78,21,107.72-11,34.91-41,14-96-8-138-12-23-34.91-43-62.84-41-5,1-10,5-10,10,1,2,4,3,5,2,1-2-1-6,1-8,7-6,16-3,22.94,0,17.95,8,34.91,21,42.89,40,11,26,8,55,17,81,1-2,3-3,3-6-1,3-1,7-5,8-6-36-2-78-30.92-104-12-12-28.92-28-47.87-20-4,2-4,7-3,11-6-2-5-9,0-12s10-3,15-2a65.38,65.38,0,0,1,43.89,28c31.92,46,57.85,115,11,156C486.74,290,409.94,278,375,230c-13-18-7-46,14-56,17-8,31.92,4,40.89,19,2,2,6,1,8,4,2,4,2,11,5,12,5,2,11-6,13-4,12,10,15.95,35,32.91,28,40.89-17,49.87-63,41.89-105a71.67,71.67,0,0,0-53.86-58c-5-1-12-1-13,5-1,5,6,5,10,8-6,2-17,2-17.95-4-2-12,15-13,23.93-11,16,5,30.92,14,40.9,28,18.35,25.6,28.4,53.12,36.38,81.54,1,3.55,2,7.15,2.84,10.92C564.53,224,593.46,258,630.36,265c-11-5-22.94-9-30.92-19-13-16-17-40-1-55,7-6,18.95-14,25.93-6,5,6,2,21,13,19,8-1,18-10,20.95-6,14,25,44.88,35,67.82,23,15-8,22.94-23,33.92-37,4-4,10-5,15-9,10-9,18-27,6-38-5-4-12-1-18-1-7,1-11-6-9-13,3-8,10-12,18-12,18,1,31.92,19,29.93,37s-17,32-15.12,50.13a13.22,13.22,0,0,0,5.67.87h20.67c2.74,22,15.71,43,34.66,53,42.89,23,103.73,22,133.65-20,30.92-42,30.92-103-6-140-9-10-26.93-10-36.91,0,16-14,39.9-5,48.88,13,17.95,40,20.94,93-16,125-20,17-46.88,13-66.83-3-2-1-5-1-6,2-1,5,1,9,4,12,14,12,33.91,15,50.86,10,34.91-12,47.88-52,48.88-86a123.78,123.78,0,0,1-24.94,64c5-6,10-12,14-19-7,15-15.95,28-29.92,36-19,10-42.89,9-57.85-7-2-2-2-5-2-8,20,5,38.9,18,59.84,6,24.94-14,34.91-40,38.9-66,2-21-4-42-11-62-7-19-32.91-33-50.87-17,5-6,12-9,19-8,16,2,27.93,14,33.91,28,20,48,16,115-33.91,141-31.91,16-70.81,18-103.73-3-23.94-16-28.92-53-2-68,15-7,11,16,19,18,12,3,22.94-20,31.92-11,10,9,11,33,28.92,34,24.94,2,47.88-18,54.86-41,8-24,8-51-3-74-5-11-17-18-29.93-17-11,1-10,17-18.95,16-4,0-3-11,2-16,16.95-16,42.89-6,51.86,13a181.41,181.41,0,0,1,18,85,14.74,14.74,0,0,0,3.86,10h17.94a34.77,34.77,0,0,1,10,1.39c14.12,5.61,31.07,4.61,42,13.61,20,16,41.9,11,60.85,1a15.48,15.48,0,0,0,8-16c0-28-24.94-49-47.88-62-6-4-12-5-19-4-5,1-15,5-10,10,2,3,8-3,9,0,1,4-7,10-13,9-2-1-4-2-4-4,0-16,21.94-21,33.91-15,28.92,14,45.88,41,72.81,59,25.93,17,62.84,47,88.77,26,5-3,5-16,10-21,8-8,21-1,31.92-6,5-2,13,3,17-2,3-2-2-5-4-8,12,0,21.94,5,32.91,9-6-11-20-13-30.92-13-49.87-3-99.74,23-146.62,7-32.91-11-54.86-61-95.75-51-6,2-11,8-11,14,1,3,3,6,6,7,10,1,17-13,27.93-9-10-5-16,6-25.93,8-7,1-9-6-6-11,16-24,42.89-7,58.85,7,33.91,32,71.81,73,121.68,62,6-2-4-10-9-13-16-7-33.91-3-50.87-4,17-2,33.91-3,49.87,2,6,2,17,13,11,15-26.93,10-58.85-7-81.79-25-26.93-21-48.87-55-84.78-55-6,1-10,4-14,9s-3,14,5,13c10-1,16-13,26.93-8-10-5-17,7-25.93,9a7.47,7.47,0,0,1-9-7c2-14,17-19,28.92-15,28.93,8,45.88,36,70.82,49,44.88,22,98.74-4,147.62-9,43.88-4,83.78,17,114.1,46.27,3,.5,6,.87,9,1.13a99.78,99.78,0,0,0,27.5-1.4c11-3,4-24,13-25,16,0,25.93,18,37.9,30,5,4,12,8,19,6,11-3,10-16,13-25,5-13,19-7,28.92-15-1-1-3-3-2-3,26.93-11,53.86,7,67.82,29,3-28-29.92-42-53.86-41,12-1,22.94,2,33.92,6-12-7-26.93-10-39.9-5-54.86,23-113.71,12-144.63-41,5,18,11,37,26.93,49,0,1,0-5,2-4,23.94,9,35.91,39,61.84,41,6,0,3-10-1-14-26.93-20-61.84-28-77.8-60-2-2-4-5-8-5,2,5,4,10,9,13-5-4-9-8-9-15,21,31,51.87,48,84.78,65,6,3,11,16,3,16-26.93,1-36.91-34-63.84-40-2-1-1,6-3,3-12-13-21.94-31-23.94-49,30.92,59,94.76,58,152.61,38,38.89-14,88.77,12,95.38,58,.84,3.68,1.63,6.19,2.75,10.32A64.11,64.11,0,0,0,1710.56,254c54.85,18,129.66,34,167.56-21,52.86-76,18-176-46.88-232,51.87,50,82.79,127,51.87,197,36.9-57,6-133-34.91-180,48.87,54,70.82,139,33.91,205a102.17,102.17,0,0,0,18-53c1,57-46.87,99-102.73,92,32.92,7,72.81-6,88.77-38,35.91-74,8-162-47.87-218,42.88,51,75.8,120,47.87,186,29.92-55,3-123-33.91-168,37.9,45,57.85,109,34.91,166,26.93-69-9-140-55.86-190,48.88,45,76.8,111,68.82,179-5,42-33.91,83-78.79,83,66.83-4,87.77-78,78.79-136-8-50-32.91-93-68.82-126,1,2,2,4,4,5a3.7,3.7,0,0,1-1-3c55.85,54,88.77,143,50.86,216,33.92-69,8-152-41.89-207,42.89,48,78.8,127,39.9,187,30.92-70-1-145-50.87-197,48.87,46,77.8,111,67.82,180-4,29-15,58-40.89,71-54.86,28-158.59,30-174.55-44-4-16,20-43,27.93-29,12,18,33.91,13,48.87,13,10,0,12,13,19.95,14,3,0,8-4,10-1,13,10,27.92,38,44.88,22,3-2-2-10,4-13,24.94-9,43.89-29,48.87-56,13-62-18.95-111-54.85-155,52.86,49,74.8,121,69.19,191.32,1.84,4.57,4.5,4.68,6.9,4.68H1925Z"/></g></g></svg>