<svg xmlns="http://www.w3.org/2000/svg" viewBox="0 0 237.76 235.1"><defs><style>.cls-1{fill:#fff;}</style></defs><title>logl2</title><g id="Слой_2" data-name="Слой 2"><g id="Слой_5" data-name="Слой 5"><path class="cls-1" d="M25.42,87.28c.63,13,16.53,16.83,26.9,13.28,12.14-4.15,18.9-17,16.9-29.44C67,57.39,50.56,46.27,54.26,31.58c2.27-9,13.12-9.3,20.48-7A33.41,33.41,0,0,1,92.14,37.9c10.39,15.5,6,35.47-4.29,49.75-1.89,2.62,2.44,5.11,4.32,2.53,8.44-11.68,12.92-26.39,10.1-40.75A39.62,39.62,0,0,0,78.73,20.71C68.06,16.44,52.21,17.4,49.28,30.86,46,46.13,59.84,56,63.71,69.28c2.52,8.67-.48,19-8.13,24.15-7,4.67-24.58,5.85-25.16-6.15-.15-3.2-5.15-3.22-5,0Z"/><path class="cls-1" d="M55,76c1.25-4.2,7.85-6.09,11.46-7a36.5,36.5,0,0,1,11.69-1c3.21.19,3.2-4.81,0-5-8.84-.53-25,1.57-28,11.72C49.27,77.77,54.09,79.09,55,76Z"/><path class="cls-1" d="M111.55,67.74a103.78,103.78,0,0,0-1.28-66c-1.07-3-5.9-1.71-4.82,1.33a99.2,99.2,0,0,1,1.28,63.37c-1,3.08,3.86,4.4,4.82,1.33Z"/><path class="cls-1" d="M128.2,40.85a157.6,157.6,0,0,1-.06-19.68c.19-3.22-4.81-3.21-5,0a157.6,157.6,0,0,0,.06,19.68c.2,3.2,5.21,3.22,5,0Z"/><path class="cls-1" d="M124.72,12.64c3.22,0,3.23-5,0-5s-3.22,5,0,5Z"/><path class="cls-1" d="M182.77,19.64A14.82,14.82,0,0,0,169.63,8.55c-7.27-.77-14.07,3.15-19.35,7.78-10.71,9.37-16.68,23.49-17.39,37.56-.73,14.5,4.43,29.22,19.41,33.78,14.41,4.39,32.07.83,38.3-14.17,1.24-3-3.6-4.26-4.82-1.33-5.21,12.54-21.5,14.38-32.95,10.42-12.29-4.26-15.53-16.88-14.94-28.7a49.77,49.77,0,0,1,10.73-28.65c3.63-4.45,8.34-8.83,13.83-10.77,6.1-2.16,13.82-.58,15.5,6.5.74,3.13,5.56,1.81,4.82-1.33Z"/><path class="cls-1" d="M151.35,54.59c1.81,4.28,9.32,4.84,13.33,4.88,4.75,0,9.76-1.81,12.42-6,5.82-9.12-4.5-17.74-13.44-15.89-9.84,2-16.27,13.14-15,22.79,1.47,11.31,15.06,13.68,23.93,9.89,2.95-1.26.4-5.57-2.53-4.32-6,2.57-16,1-16.54-7a17.2,17.2,0,0,1,6.13-14,11.3,11.3,0,0,1,7.74-2.66c4,.31,7.67,4,5.6,8-1.58,3.07-5,4.14-8.3,4.12-1.89,0-8.13-.33-9-2.4-1.25-3-5.55-.41-4.32,2.52Z"/><path class="cls-1" d="M119.07,130.6a157.58,157.58,0,0,1-.9-19.67c0-3.22-5-3.22-5,0a157.58,157.58,0,0,0,.9,19.67c.35,3.16,5.35,3.2,5,0Z"/><path class="cls-1" d="M115.26,101c3.22,0,3.23-5,0-5s-3.22,5,0,5Z"/><path class="cls-1" d="M30.08,118.68c3.1-8.84,14.64-6.58,17.56,1.11,3.14,8.22-3.48,15.94-10.79,18.74-11,4.21-25.3,2.37-33.28,12.63-6.06,7.8-4.48,18.89,5.33,22.5,11.28,4.15,21-4.11,28.46-11.6l-3.92-3c-3.74,4.94-9.25,8-13.39,12.58-2.87,3.16-6.49,8.46-4.77,13,1.8,4.7,8.41,6.86,12.9,7.44a27.76,27.76,0,0,0,16.14-3c11.75-6.05,17-18.31,22.28-29.6,3.05-6.49,7.54-12.9,15.59-12.39,9,.58,13.79,9.6,11,17.72-1,3.06,3.78,4.37,4.82,1.33,3.57-10.46-2.66-22-13.8-23.83-12.78-2.05-19.27,8.57-23.74,18.66C55,173.36,45.92,188,30.28,187.22c-3.37-.16-10.27-1.45-10.18-6.2.06-3,3.82-6.34,5.78-8.13,4.09-3.75,8.5-6.87,11.88-11.34,1.73-2.29-2-5-3.93-3-5.1,5.15-11.27,11.51-19.12,11.22-8.31-.3-12.47-7.93-7.68-14.9,8.06-11.75,27.34-7,38.11-15.19,8.81-6.71,11.54-20.18,2.73-28.13a14,14,0,0,0-22.61,5.83c-1.07,3.05,3.76,4.35,4.82,1.33Z"/><path class="cls-1" d="M53.52,191.76c-6.73-.1-11.6,8.39-11.28,14.48.33,6.54,6.69,11.76,13.19,10.25,7.19-1.68,10.65-9.42,9.83-16.27-1-8.05-7.74-9.54-14.57-7.87-3.13.76-1.8,5.58,1.33,4.82,4.13-1,8-.82,8.35,4.27.27,3.61-1.14,8-4.61,9.67a6,6,0,0,1-8.56-5.48c0-3.07,2.67-8.92,6.32-8.87,3.21.05,3.22-4.95,0-5Z"/><path class="cls-1" d="M73.41,198.81l-9.48,20.67c-1.33,2.9,3,5.45,4.31,2.52l9.48-20.67c1.33-2.9-3-5.45-4.31-2.52Z"/><path class="cls-1" d="M74.25,208.13c4.66-1.87,5.41,4.41,4.73,7.46A12.88,12.88,0,0,1,74.09,223c-2.52,2,1,5.51,3.54,3.53a16.83,16.83,0,0,0,6.44-15.4c-.8-5.32-5.54-10-11.15-7.78-3,1.18-1.66,6,1.33,4.82Z"/><path class="cls-1" d="M111.37,164.18,95.65,229.94c-.75,3.12,4.07,4.46,4.82,1.33l15.72-65.76c.75-3.13-4.07-4.46-4.82-1.33Z"/><path class="cls-1" d="M103.62,211.93c-6.16-6.44-16.15-1-18.35,6.41-1.13,3.77-.47,8.43,3,10.79,3.22,2.21,7.31,1.81,11,1.3,3.17-.44,1.82-5.26-1.33-4.82-4.33.61-9.56,0-7.79-5.94,1.13-3.8,6.51-7.84,10-4.21,2.23,2.33,5.76-1.21,3.54-3.53Z"/><path class="cls-1" d="M111.05,223.23c6.42,7.07,20.37-2.16,18.93-10.74-.83-4.94-5.81-7.06-10.39-6.22-5.41,1-9.5,5.29-11,10.46-1.41,4.78-1.42,11.49,2.52,15.15,3.71,3.43,9.78,3.55,14.48,2.93,5-.66,10.28-2.66,13.18-7.07a14.16,14.16,0,0,0,2.22-7.06,22.14,22.14,0,0,0-.3-4.67c-.11-.69-.25-1.38-.38-2.06-.23-1.11-1.68-3.54.06-3,2,.56,2.86,4.85,4.87,6.21A8.41,8.41,0,0,0,152,218a11.56,11.56,0,0,0,8.17-12.4c-.36-3.16-5.36-3.19-5,0,.28,2.46-.4,5.42-2.76,6.77-3,1.71-5-.08-6.39-2.54-1.26-2.26-2.88-4.5-5.63-4.89-8.67-1.22-4.49,9.94-4.42,14,.09,5.69-3.18,9-8.46,10.43-4.09,1.08-10.55,1.62-13.32-2-3.5-4.61-.79-13.16,4.34-15.49,2.45-1.11,2.94-1,4.77,1.15,2.06,2.42,1.44,3.07-.77,5.06-1.79,1.6-5.83,4-8,1.63s-5.7,1.16-3.54,3.53Z"/><path class="cls-1" d="M144.09,158.77q12.36,31.86,25.73,63.31c1.25,2.95,5.56.41,4.32-2.52Q161,188.71,148.91,157.44c-1.15-3-6-1.68-4.82,1.33Z"/><path class="cls-1" d="M182.54,189.32c-7.55.08-12,6.37-11,13.55.47,3.34,1.41,7,4.33,9s6.8,2,10,1.08c6.17-1.79,12.34-8.41,10.82-15.27C195,190,185,188,178.68,190.38c-3,1.14-1.68,6,1.33,4.82,3.39-1.29,8.57-1.47,11,1.91,2.83,3.93-1.53,8.84-5,10.44-4.19,1.94-8.23,1-9.31-3.75s.38-9.42,5.81-9.48c3.21,0,3.22-5,0-5Z"/><path class="cls-1" d="M180.9,185.84a21.34,21.34,0,0,0,27.76,10.53c2.93-1.22,1.64-6.06-1.33-4.82-8.86,3.7-17.9.46-22.11-8.23-1.4-2.9-5.71-.37-4.32,2.52Z"/><path class="cls-1" d="M194.8,171.62l17.5,14.52c2.46,2,6-1.47,3.53-3.53l-17.5-14.52c-2.46-2-6,1.48-3.53,3.53Z"/><path class="cls-1" d="M204,173.23c-.62-5.16,5.89-4,8.67-2.51a12.75,12.75,0,0,1,5.62,6.51c1.25,3,5.56.41,4.31-2.52a16.82,16.82,0,0,0-12.85-10.16c-5.42-.76-11.49,2.52-10.75,8.68.37,3.16,5.38,3.2,5,0Z"/><path class="cls-1" d="M179.85,120.89l54.26,37c2.67,1.81,5.17-2.52,2.53-4.32l-54.27-37c-2.67-1.82-5.17,2.51-2.52,4.32Z"/><path class="cls-1" d="M220.47,143.45c-8.24,3.27-7.61,14.17-1.52,19.3,3,2.54,7.52,3.83,11.1,1.7,3.31-2,4.64-6,5.53-9.48.79-3.12-4-4.45-4.82-1.33-1,4-3.08,9.08-8,5.72-3.08-2.08-5.71-9.19-.91-11.09,3-1.18,1.67-6-1.33-4.82Z"/><path class="cls-1" d="M124.53,107.84l-.42,22.61c-.06,3.22,4.94,3.22,5,0l.42-22.61c.06-3.22-4.94-3.22-5,0Z"/><path class="cls-1" d="M129.23,115.56c3-3.14,6,2.08,6.66,4.54a12.4,12.4,0,0,1-1.13,9.07c-1.51,2.84,2.8,5.37,4.31,2.52,2.9-5.46,3.1-12.32-.46-17.58-2.94-4.34-9-6.24-12.92-2.09-2.21,2.33,1.32,5.88,3.54,3.54Z"/></g></g></svg>