<svg xmlns="http://www.w3.org/2000/svg" viewBox="0 0 106.64 105.71"><defs><style>.cls-1{fill:#fff;}</style></defs><title>logo1</title><g id="Слой_2" data-name="Слой 2"><g id="Слой_5" data-name="Слой 5"><path class="cls-1" d="M11.46,39.15c.73,5.56,6.64,7.61,11.64,6.21A11.93,11.93,0,0,0,31.3,31.9c-.63-3.84-3.16-6.72-5-10-1.09-2-2.74-5.38-1.69-7.69,1.74-3.79,6-3.94,9.37-2.82,12.28,4.07,11.5,19.14,5.39,27.88-.92,1.32,1.24,2.57,2.16,1.26,4.26-6.1,6.46-14,3.69-21.19C42.81,13,36.48,7.88,29.53,8.23c-6,.3-8.64,5.36-7.16,10.87,1.07,4,4.16,7,5.67,10.74,1.44,3.61,1.1,8-1.79,10.91S14.71,44.91,14,39.15c-.21-1.58-2.71-1.6-2.5,0Z"/><path class="cls-1" d="M24.94,34.14c.55-1.85,3.36-2.6,5-3a16.57,16.57,0,0,1,5.25-.46c1.6.1,1.6-2.4,0-2.5-4-.23-11.26.73-12.63,5.34a1.25,1.25,0,0,0,2.41.66Z"/><path class="cls-1" d="M50.22,30.45A47.52,47.52,0,0,0,49.65.86c-.52-1.51-2.94-.86-2.41.66a45.15,45.15,0,0,1,.57,28.26,1.25,1.25,0,0,0,2.41.67Z"/><path class="cls-1" d="M57.66,18.39a69.83,69.83,0,0,1,0-8.8c.09-1.6-2.41-1.6-2.5,0a69.83,69.83,0,0,0,0,8.8c.11,1.6,2.61,1.61,2.5,0Z"/><path class="cls-1" d="M56,5.91a1.25,1.25,0,0,0,0-2.5,1.25,1.25,0,0,0,0,2.5Z"/><path class="cls-1" d="M82.06,8.88c-1.85-5.85-8.25-6-12.79-3.07-5.92,3.86-9.31,11.12-9.75,18C59.1,30.43,61.28,37.1,68,39.34c6.49,2.17,14.36.55,17.42-6,.68-1.45-1.48-2.72-2.16-1.26C81,36.94,76,38.34,71,37.44c-6.39-1.15-9-6-9-12.06A22.74,22.74,0,0,1,64.9,14.24c2-3.52,11.89-13.76,14.74-4.7.49,1.53,2.9.88,2.42-.66Z"/><path class="cls-1" d="M67.77,24.6c.81,1.91,4,2.18,5.81,2.24a6.67,6.67,0,0,0,5.79-2.54c2.8-4-1.55-8.2-5.72-7.53-4.52.73-7.47,5.61-7.16,10,.38,5.18,6.5,6.79,10.65,5.05,1.46-.62.82-3-.67-2.41-2.42,1-6.58,1-7.4-2.21-.54-2.07.53-4.73,1.92-6.23a5.19,5.19,0,0,1,3.65-1.77c1.54,0,3.5,1.07,3,3s-2.61,2.25-4.11,2.2c-.61,0-3.32-.2-3.65-1-.63-1.48-2.78-.21-2.16,1.26Z"/><path class="cls-1" d="M53.59,58.51a69.73,69.73,0,0,1-.41-8.79,1.25,1.25,0,0,0-2.5,0,69.73,69.73,0,0,0,.41,8.79c.17,1.58,2.67,1.6,2.5,0Z"/><path class="cls-1" d="M51.75,45.39a1.25,1.25,0,0,0,0-2.5,1.25,1.25,0,0,0,0,2.5Z"/><path class="cls-1" d="M13.67,53.52q2.3-4.89,5.35-1,5.41,1.91.86,7.31c-1.68,1.91-4.35,2.47-6.69,3-2.69.58-5.44.81-7.95,2C2.24,66.37-.4,69.41.05,73c.41,3.25,3.33,5.15,6.41,5.37,4.33.31,7.72-2.85,10.56-5.68L15.25,70.9C12.73,74,7.71,76.3,6.91,80.59c-.75,4,4,5.53,7.14,5.61,4.42.1,8.3-2.39,11-5.69a36.69,36.69,0,0,0,4.58-8.06c1.45-3.08,2.15-4.65,5.66-5.58q3.66-2.12,6.11,1.87a5.81,5.81,0,0,1,.33,5,1.25,1.25,0,0,0,2.41.67c2.32-8-6.92-14.59-13.35-8.57C25.93,70.4,26,78,20,81.91c-2.72,1.77-13,3.65-8.76-3.74,1.18-2,4.28-3.6,5.81-5.5,1-1.23-.6-2.93-1.77-1.77a23.44,23.44,0,0,1-4.15,3.62,5.1,5.1,0,0,1-3.85,1.16Q2.3,76.64,4,68.75c2.14-3.11,8.24-3,11.45-3.84,4-1.12,7.86-3.55,8.62-8,1.32-7.68-9.16-12.37-12.58-4.67C10.87,53.71,13,55,13.67,53.52Z"/><path class="cls-1" d="M24.15,85.72c-3.08,0-5.32,3.81-5.18,6.61A5.09,5.09,0,0,0,25,97c3.27-.76,4.86-4.27,4.49-7.4C29.09,86,26,85.22,22.85,86c-1.56.38-.9,2.79.66,2.41,1.76-.43,3.41-.4,3.57,1.78.12,1.56-.48,3.48-2,4.21a2.57,2.57,0,0,1-3.64-2.34c0-1.3,1.15-3.85,2.7-3.83a1.25,1.25,0,0,0,0-2.5Z"/><path class="cls-1" d="M32.92,88.94l-4.23,9.24c-.67,1.45,1.49,2.72,2.16,1.26l4.23-9.24c.67-1.46-1.49-2.73-2.16-1.26Z"/><path class="cls-1" d="M33.45,93.3c2-.79,2.23,1.9,1.95,3.17a5.56,5.56,0,0,1-2.15,3.23c-1.26,1,.52,2.76,1.77,1.77a7.64,7.64,0,0,0,2.91-7c-.37-2.45-2.57-4.61-5.14-3.57-1.48.59-.83,3,.66,2.41Z"/><path class="cls-1" d="M49.88,73.49l-7,29.39c-.37,1.57,2,2.23,2.42.67l7-29.4c.37-1.56-2-2.23-2.41-.66Z"/><path class="cls-1" d="M46.64,94.77c-2.83-2.94-7.42-.47-8.43,2.93a4.43,4.43,0,0,0,1.39,5c1.48,1,3.34.83,5,.6s.91-2.63-.67-2.41c-1.84.25-4.08,0-3.32-2.5.48-1.6,2.77-3.37,4.25-1.82,1.11,1.17,2.88-.6,1.77-1.77Z"/><path class="cls-1" d="M49.77,100c4.21,3.41,12.08-3.43,7.41-7.1-5.66-4.46-11.88,6.51-7.42,10.87,4.84,4.73,14.16,0,13.54-6.46,0-.25-.45-2.33-.42-2.36.5-.34,1.16,1.38,1.4,1.59a3.88,3.88,0,0,0,3,1.3c3-.14,4.77-3.07,4.65-5.82-.07-1.6-2.57-1.61-2.5,0-2.09,2.89-3.46,3.32-4.1,1.31-.26-.35-.54-.68-.83-1a3.29,3.29,0,0,0-1.39-.74,2.33,2.33,0,0,0-2.45,1.07c-1.1,1.64.29,3.6.2,5.33-.18,3.28-2.71,4.83-5.5,4.82q-3.73.51-4.45-4.84,5.75.2.6.26c-1.24-1-3,.75-1.77,1.77Z"/><path class="cls-1" d="M64.51,71.14Q70,85.39,76,99.47c.63,1.48,2.78.21,2.16-1.26Q72.33,84.43,66.92,70.48c-.58-1.49-3-.84-2.41.66Z"/><path class="cls-1" d="M81.82,84.63c-3.46,0-5.52,2.93-5.06,6.22a5.71,5.71,0,0,0,2,4.09,5.53,5.53,0,0,0,4.6.5c2.83-.81,5.63-3.85,4.93-7C87.5,85,83,84,80.07,85.11c-1.49.57-.85,3,.66,2.41s3.74-.67,4.79.82c1.18,1.68-.74,3.78-2.2,4.46a4,4,0,0,1-2.51.35c-1-.26-1.25-1.05-1.45-2-.45-2,.12-4,2.46-4.07a1.25,1.25,0,0,0,0-2.5Z"/><path class="cls-1" d="M81,83.27A9.66,9.66,0,0,0,93.54,88c1.46-.61.82-3-.67-2.41A7.24,7.24,0,0,1,83.14,82c-.7-1.45-2.86-.18-2.16,1.26Z"/><path class="cls-1" d="M87.21,76.94,95,83.44c1.23,1,3-.74,1.77-1.77L89,75.18c-1.23-1-3,.74-1.77,1.76Z"/><path class="cls-1" d="M91.55,77.57c-.26-2.18,2.52-1.63,3.68-1a5.56,5.56,0,0,1,2.46,2.86c.63,1.48,2.79.21,2.16-1.26A7.63,7.63,0,0,0,94,73.56c-2.49-.35-5.3,1.17-5,4,.19,1.58,2.69,1.6,2.5,0Z"/><path class="cls-1" d="M80.55,54.29l24.26,16.53c1.33.91,2.59-1.25,1.26-2.15L81.81,52.13c-1.33-.91-2.58,1.25-1.26,2.16Z"/><path class="cls-1" d="M98.75,64.13C95,65.63,95.2,70.61,98,73a4.53,4.53,0,0,0,5.12.78c1.51-.9,2.13-2.71,2.53-4.32a1.25,1.25,0,0,0-2.41-.66c-.43,1.71-1.27,3.93-3.4,2.47-1.27-.86-2.47-3.91-.44-4.71,1.48-.59.83-3-.66-2.41Z"/><path class="cls-1" d="M55.76,48.34l-.19,10.11a1.25,1.25,0,0,0,2.5,0l.19-10.11a1.25,1.25,0,0,0-2.5,0Z"/><path class="cls-1" d="M58.09,51.88c1.24-1.3,2.49,1,2.75,2a5.41,5.41,0,0,1-.49,4c-.75,1.42,1.4,2.68,2.16,1.26a7.81,7.81,0,0,0-.21-8c-1.36-2-4.15-2.88-6-1-1.11,1.17.66,2.94,1.77,1.77Z"/></g></g></svg>